<svg width="120" height="26" viewBox="0 0 120 26" fill="none" xmlns="http://www.w3.org/2000/svg">
<path d="M119 3.24814C118.944 3.42241 118.896 3.60015 118.831 3.77097C118.416 4.85511 117.362 5.50595 116.155 5.3974C115.08 5.30054 114.276 4.77598 113.918 3.73983C113.553 2.68379 113.701 1.67878 114.529 0.870968C115.281 0.135806 116.216 -0.0177135 117.195 0.278946C118.151 0.568254 118.735 1.2485 118.956 2.22886C118.965 2.26821 118.948 2.31751 118.999 2.34043V3.24814H119ZM114.139 2.75212C114.107 3.95303 115.06 4.97533 116.216 5.03242C117.595 5.10031 118.573 4.07757 118.61 2.87537C118.648 1.6044 117.717 0.563065 116.517 0.525009C115.139 0.480899 114.177 1.38255 114.139 2.75212Z" fill="#267554"/>
<path d="M97.7915 12.5596C97.7915 8.46002 97.7936 4.35998 97.7854 0.260367C97.785 0.0341969 97.8503 -0.00126381 98.0561 3.35391e-05C99.6415 0.0086825 101.227 0.00825006 102.813 3.35391e-05C102.998 -0.000831357 103.05 0.0367916 103.049 0.231393C103.042 3.04879 103.044 5.86576 103.044 8.68316C103.044 9.16361 103.174 9.29032 103.654 9.25443C104.028 9.22632 104.385 9.10134 104.754 9.04166C106.041 8.83279 107.296 8.98544 108.512 9.43086C110.269 10.0748 111.686 11.1689 112.704 12.7456C113.39 13.8077 113.676 15.0004 113.697 16.2506C113.747 19.1752 113.706 22.1003 113.721 25.0254C113.722 25.1711 113.675 25.2044 113.536 25.204C111.901 25.1997 110.265 25.1975 108.629 25.2061C108.435 25.207 108.448 25.1136 108.448 24.9839C108.45 22.0947 108.443 19.2051 108.453 16.3159C108.456 15.5751 108.157 15.0138 107.575 14.5826C106.49 13.7787 104.804 13.831 103.776 14.708C103.282 15.1297 103.043 15.6724 103.043 16.3241C103.045 19.1631 103.044 22.0017 103.044 24.8407C103.044 25.0414 102.94 25.1417 102.732 25.1417C101.183 25.1417 99.6333 25.1426 98.0838 25.1413C97.7547 25.1413 97.7923 25.1798 97.7923 24.858C97.7915 20.7584 97.7919 16.6584 97.7919 12.5588L97.7915 12.5596Z" fill="#217251"/>
<path d="M41.2009 13.4358C41.0703 13.3472 40.9726 13.2802 40.8744 13.2144C38.5716 11.6706 35.4761 12.5943 34.4482 15.1315C33.6785 17.0312 34.4508 19.1212 36.3211 20.2015C38.7139 21.5836 41.8829 20.2516 42.567 17.5765C42.6569 17.2254 42.6859 16.8686 42.6859 16.5071C42.6846 11.2693 42.6868 6.03102 42.6794 0.793209C42.6794 0.559687 42.7478 0.516874 42.964 0.518604C44.3621 0.528118 45.7602 0.526388 47.1583 0.519901C47.3252 0.519037 47.3728 0.560119 47.3728 0.731369C47.3745 3.20238 47.3849 5.67339 47.3918 8.14396C47.3957 9.48412 47.394 10.8238 47.4 12.164C47.4065 13.6763 47.4333 15.189 47.4243 16.7012C47.4147 18.2537 47.0329 19.7133 46.1559 21.0067C44.6246 23.2654 42.5558 24.7175 39.8114 25.1063C35.4679 25.7213 31.8388 23.4077 30.2124 20.1492C29.6969 19.1165 29.469 18.012 29.4366 16.8582C29.3817 14.9239 29.8971 13.1712 31.092 11.6425C32.4814 9.86424 34.2393 8.63998 36.485 8.20148C37.9969 7.90612 39.504 7.93423 40.9963 8.34894C41.1494 8.39132 41.2078 8.45749 41.2069 8.62744C41.1992 10.1548 41.2022 11.6823 41.2022 13.2097C41.2022 13.2715 41.2022 13.3333 41.2022 13.4354L41.2009 13.4358Z" fill="#217251"/>
<path d="M70.0572 4.41565C70.0572 3.06122 70.0607 1.70679 70.0529 0.352799C70.0521 0.177225 70.091 0.123169 70.2748 0.124034C71.8454 0.131385 73.4165 0.131818 74.9872 0.124034C75.1731 0.123169 75.2073 0.17809 75.2073 0.352366C75.2016 3.05387 75.2051 5.75537 75.1991 8.45688C75.1986 8.64802 75.238 8.71029 75.4425 8.70813C76.5665 8.69732 77.6904 8.70554 78.8148 8.69991C78.9596 8.69905 79.0128 8.72846 79.0119 8.88673C79.0059 10.3635 79.0059 11.8404 79.0119 13.3172C79.0124 13.4724 78.9665 13.5061 78.8186 13.5053C77.6874 13.4992 76.5561 13.5061 75.4248 13.4975C75.2445 13.4962 75.1973 13.5438 75.1991 13.7237C75.2099 14.861 75.1212 15.9957 75.0914 17.1322C75.0797 17.5859 75.1316 18.0382 75.2968 18.4676C75.5969 19.2456 76.2062 19.6227 76.9941 19.7632C77.3505 19.8268 77.7103 19.8389 78.0705 19.8268C78.2111 19.8221 78.2703 19.8463 78.2699 20.0093C78.2634 21.6591 78.266 23.3084 78.2664 24.9582C78.2664 25.0616 78.2811 25.1489 78.1198 25.1472C77.1403 25.136 76.1591 25.1697 75.1813 25.1247C73.279 25.0365 71.883 24.0873 70.9247 22.4747C70.3695 21.5406 70.1321 20.5049 70.0763 19.4277C70.0123 18.19 70.0508 16.951 70.0538 15.7125C70.0555 15.0284 70.0521 14.3438 70.0607 13.6597C70.0624 13.5135 70.0019 13.4988 69.8812 13.4992C68.9156 13.5031 67.9504 13.4975 66.9847 13.5048C66.8212 13.5061 66.7654 13.4711 66.7667 13.2942C66.7745 11.8317 66.775 10.3696 66.7667 8.90706C66.7659 8.72456 66.829 8.69775 66.9886 8.69905C67.9395 8.70554 68.8909 8.69645 69.8419 8.70683C70.0278 8.709 70.0629 8.65278 70.062 8.4785C70.0546 7.12407 70.0577 5.77008 70.0577 4.41565H70.0572Z" fill="#217251"/>
<path d="M65.1711 13.4943C65.1711 14.7337 65.175 15.9726 65.1702 17.212C65.1633 19.1654 64.5034 20.8814 63.2129 22.3366C61.6345 24.1174 59.6418 25.0597 57.2547 25.1284C55.1166 25.1898 53.271 24.4508 51.7293 22.9921C49.8693 21.2316 48.9867 19.0331 48.9737 16.4847C48.9616 14.1071 48.9737 11.7295 48.9668 9.35186C48.9664 9.1538 49.0178 9.10147 49.2159 9.10277C50.7005 9.11142 52.1851 9.11012 53.6692 9.1032C53.8401 9.10234 53.8816 9.14991 53.8811 9.31726C53.8755 11.7381 53.876 14.159 53.8785 16.5798C53.879 17.1805 53.9607 17.7695 54.17 18.3373C54.6089 19.5265 55.5664 20.2041 56.8391 20.2318C57.6339 20.2491 58.376 20.103 58.9819 19.5451C59.5298 19.0409 59.7875 18.384 59.9307 17.6717C60.015 17.2531 60.0366 16.8293 60.0396 16.4047C60.0513 14.6904 60.0569 12.9762 60.0686 11.2616C60.0734 10.5848 60.0928 9.90842 60.0928 9.23164C60.0928 9.0738 60.1456 9.04439 60.2905 9.04482C61.8468 9.04958 63.4036 9.05088 64.96 9.04396C65.1308 9.04309 65.175 9.0885 65.1741 9.25845C65.1672 10.6704 65.1702 12.0828 65.1702 13.4947L65.1711 13.4943Z" fill="#217251"/>
<path d="M89.1978 8.16157C91.6416 8.17238 93.6335 9.08441 95.3377 10.6875C95.416 10.761 95.4324 10.8012 95.3555 10.8886C94.4348 11.9295 93.5163 12.9721 92.6029 14.0191C92.5009 14.1363 92.4593 14.0935 92.3767 14.0052C90.8848 12.4151 88.5552 12.3209 86.9348 13.7817C85.4148 15.1521 85.2785 17.5669 86.6338 19.1189C88.2767 21.0001 91.1737 20.8933 92.6596 18.8928C92.7504 18.7704 92.7962 18.7354 92.9286 18.8573C93.934 19.7849 94.9481 20.703 95.9596 21.6241C96.0219 21.6808 96.0911 21.718 95.9963 21.8243C95.0173 22.9245 93.8925 23.8322 92.5285 24.4108C90.1656 25.4137 87.7807 25.5097 85.4416 24.3866C82.9325 23.1818 81.3852 21.1636 80.8248 18.4417C80.2946 15.8674 80.8304 13.4962 82.4694 11.4304C83.9609 9.55016 85.938 8.49239 88.3264 8.20913C88.6426 8.17151 88.9591 8.18146 89.1974 8.16113L89.1978 8.16157Z" fill="#217251"/>
<path d="M15.263 12.1618C15.3201 13.0193 15.2557 13.8531 14.879 14.6483C14.1196 16.2536 12.3807 17.2093 10.5831 16.9896C8.87315 16.7807 7.40845 15.4427 7.05038 13.7627C6.54831 11.4089 8.08394 9.13116 10.4434 8.74758C11.4856 8.57806 12.459 8.7878 13.3555 9.34825C13.4216 9.38977 13.4917 9.42566 13.56 9.46372C14.2965 10.0198 14.8297 10.7226 15.1065 11.6091C15.1635 11.7916 15.2111 11.9771 15.263 12.1609V12.1618Z" fill="#018970"/>
<path d="M4.19969 8.88068C3.87838 9.49995 3.58864 10.1331 3.41783 10.8129C2.9071 12.8458 3.13155 14.7927 4.11104 16.6496C4.14088 16.7063 4.16769 16.7651 4.1958 16.8226C4.17115 16.8481 4.15083 16.881 4.12142 16.8978C3.50561 17.2512 2.88764 17.601 2.27227 17.9547C1.5263 18.3837 0.782054 18.8153 0.0369455 19.2456C-0.0205701 19.1928 0.0062417 19.1237 0.0062417 19.0627C0.00494436 14.9272 0.00494436 10.7912 0.00580925 6.65574C0.00580925 6.59909 0.0166205 6.54243 0.0222423 6.48535C0.258359 6.62071 0.494908 6.75606 0.731025 6.89142C1.88739 7.55436 3.04333 8.21731 4.19969 8.88068Z" fill="#0179C3"/>
<path d="M11.1197 20.8468C11.7974 20.7781 12.4785 20.743 13.141 20.5605C15.1804 19.9997 16.7606 18.8238 17.8945 17.0421C17.9364 16.976 17.9818 16.9115 18.0255 16.8467C18.0839 16.8739 18.1453 16.8968 18.2011 16.9288C19.2852 17.5516 20.3707 18.1713 21.4501 18.8018C21.7017 18.9488 21.9833 19.0522 22.1939 19.2662C19.9533 20.5567 17.7128 21.8471 15.4723 23.1371C14.0842 23.9362 12.6964 24.7358 11.3078 25.5346C11.2464 25.5696 11.1807 25.5968 11.1167 25.628C11.1176 24.034 11.1184 22.4404 11.1193 20.8464L11.1197 20.8468Z" fill="#217251"/>
<path d="M4.19967 8.88111C3.0433 8.21817 1.88737 7.55523 0.730999 6.89185C0.494883 6.75649 0.258334 6.62114 0.0222168 6.48578C0.454665 6.17831 0.929061 5.94046 1.38659 5.67624C4.56422 3.84266 7.74401 2.01427 10.9238 0.185443C10.9848 0.150415 11.0522 0.12663 11.1167 0.0976562C11.1167 1.69426 11.1175 3.29085 11.118 4.88745C10.0144 4.90518 8.94838 5.10714 7.93602 5.55472C6.42807 6.22156 5.23279 7.25294 4.35492 8.64975C4.30562 8.72803 4.25156 8.8037 4.2001 8.88068L4.19967 8.88111Z" fill="#91218E"/>
<path d="M11.1197 20.8472C11.1188 22.4412 11.118 24.0348 11.1171 25.6288C10.3936 25.2179 9.66841 24.8106 8.94752 24.3963C6.06482 22.7391 3.18385 21.0798 0.302444 19.4205C0.210765 19.3678 0.10914 19.3288 0.0373535 19.2462C0.782462 18.816 1.52671 18.3839 2.27268 17.9554C2.88805 17.6017 3.50602 17.2518 4.12183 16.8985C4.15123 16.8816 4.17156 16.8488 4.19621 16.8232C4.74023 17.7128 5.39582 18.5046 6.22699 19.142C7.57666 20.1773 9.09714 20.7447 10.8019 20.8078C10.9082 20.8117 11.0138 20.8338 11.1197 20.8476V20.8472Z" fill="#01B0C0"/>
<path d="M22.1939 19.2676C21.9833 19.0536 21.7022 18.9502 21.4501 18.8032C20.3707 18.1727 19.2848 17.553 18.2011 16.9302C18.1453 16.8982 18.0843 16.8753 18.0255 16.8481C18.4644 16.0351 18.7983 15.184 18.9566 14.2698C19.0301 13.8443 19.0755 13.417 19.0755 12.9846C19.0746 11.4965 19.0751 10.0085 19.0755 8.51999C19.0755 8.43393 19.082 8.34788 19.0854 8.26182C19.1918 8.20171 19.2986 8.14246 19.4046 8.08192C20.3408 7.54742 21.2767 7.01248 22.2125 6.47754C22.2164 6.55624 22.2242 6.63495 22.2242 6.71366C22.2246 10.8223 22.225 14.9315 22.2229 19.0402C22.2229 19.1154 22.2553 19.1984 22.1934 19.2668L22.1939 19.2676Z" fill="#75C23A"/>
<path d="M11.1176 4.88745C11.1176 3.29085 11.1168 1.69426 11.1163 0.0976562C11.5674 0.304799 11.9817 0.577674 12.4111 0.822872C13.311 1.33576 14.2057 1.85642 15.1061 2.36844C15.2259 2.43634 15.2795 2.50856 15.2791 2.65343C15.2739 5.76532 15.2743 8.87765 15.273 11.9895C15.273 12.0471 15.2657 12.1041 15.2622 12.1617C15.2103 11.9774 15.1628 11.7924 15.1057 11.6099C14.8289 10.7229 14.2957 10.0202 13.5592 9.46449C13.5601 8.12433 13.5592 6.7846 13.5644 5.44445C13.5649 5.31255 13.5225 5.26066 13.3949 5.2226C12.6507 5.00119 11.8904 4.90086 11.1168 4.88789L11.1176 4.88745Z" fill="#F57B32"/>
<path d="M22.2128 6.4775C21.277 7.01244 20.3408 7.54738 19.405 8.08189C19.299 8.14243 19.1922 8.20167 19.0858 8.26178C19.0858 7.07558 19.0858 5.88937 19.0858 4.70144C19.1195 4.67506 19.1494 4.69798 19.1801 4.71528C20.1635 5.28092 21.1469 5.84613 22.1298 6.41263C22.1601 6.42993 22.1856 6.45588 22.2128 6.4775Z" fill="#F57C34"/>
<path d="M117.685 4.31427C117.64 4.32638 117.633 4.32897 117.626 4.33027C117.269 4.40076 117.013 4.30822 116.87 3.93588C116.78 3.70409 116.623 3.49867 116.497 3.28115C116.399 3.11423 116.169 3.03466 115.986 3.09693C115.893 3.1285 115.925 3.20072 115.924 3.25823C115.921 3.55359 115.915 3.84896 115.926 4.14389C115.932 4.29178 115.892 4.35881 115.737 4.33719C115.673 4.32811 115.607 4.33027 115.543 4.33719C115.438 4.34757 115.408 4.30605 115.409 4.20313C115.412 3.25261 115.411 2.30209 115.41 1.35157C115.41 1.27546 115.405 1.20929 115.517 1.21448C115.912 1.23308 116.308 1.17989 116.702 1.25254C117.131 1.33167 117.341 1.52541 117.419 1.91851C117.504 2.34101 117.378 2.6714 117.024 2.88416C116.903 2.95725 116.894 3.00395 116.966 3.11942C117.208 3.50775 117.438 3.90301 117.685 4.3147V4.31427ZM115.923 2.15462C115.923 2.29128 115.924 2.42836 115.923 2.56502C115.923 2.62902 115.933 2.68048 116.015 2.67745C116.194 2.67053 116.375 2.69951 116.551 2.64372C116.821 2.5581 116.965 2.31722 116.912 2.03743C116.852 1.72736 116.557 1.58206 116.04 1.66293C115.798 1.70099 115.973 1.93364 115.924 2.06857C115.915 2.09408 115.923 2.12565 115.923 2.15462Z" fill="#267554"/>
</svg>
