<?xml version="1.0" encoding="UTF-8" standalone="no"?>
<svg xmlns="http://www.w3.org/2000/svg" xmlns:xlink="http://www.w3.org/1999/xlink" height="56" viewBox="0 0 159 56" width="159">
  <defs>
    <clipPath id="clip-path">
      <rect data-name="Rectangle 7939" fill="#fff" height="56" id="Rectangle_7939" width="159"/>
    </clipPath>
  </defs>
  <g clip-path="url(#clip-path)" id="Logo_Fullcolor">
    <path d="M22.111,19.813c0-3.115-.189-3.538-1.689-3.961a6.767,6.767,0,0,0-1.278-.115c-.149,0-.3-.077-.3-.232,0-.23.188-.306.6-.306,1.689,0,4.054.115,4.241.115s2.555-.115,3.68-.115c.413,0,.6.077.6.306,0,.155-.151.232-.3.232a5.339,5.339,0,0,0-.938.115c-1.014.193-1.313.846-1.388,2.192-.075,1.233-.075,2.385-.075,4v4.309c0,1.731-.037,1.811-.491,2.079a18.15,18.15,0,0,1-7.959,1.731c-2.853,0-8.184-.385-12.351-4.116A15.217,15.217,0,0,1,0,15.081C0,8.926,2.927,4.579,6.267,2.423A18.088,18.088,0,0,1,16.255,0,31.413,31.413,0,0,1,22,.655a18.331,18.331,0,0,0,3.041.385c.375.038.45.193.45.346a50.153,50.153,0,0,0-.262,5.463c0,.615-.076.806-.34.806-.189,0-.226-.23-.263-.576a6,6,0,0,0-.788-2.538c-.939-1.462-3.981-3.116-8.824-3.116a11.792,11.792,0,0,0-8.033,2.54c-2.175,1.769-3.716,5.27-3.716,9.771A15.9,15.9,0,0,0,7.244,24.391a13.5,13.5,0,0,0,9.837,4.116,10.048,10.048,0,0,0,4.281-.806,1.412,1.412,0,0,0,.749-1.349Z" data-name="Path 8734" fill="#002d5b" id="Path_8734" transform="translate(0 0)"/>
    <path d="M32.127,13.857c0-5.08,0-6-.076-7.042C31.975,5.7,31.788,5.159,30.7,5.005a10.964,10.964,0,0,0-1.126-.077.323.323,0,0,1-.263-.27c0-.192.15-.268.525-.268,1.5,0,3.642.077,3.829.077.228,0,9.65.038,10.4,0a14.84,14.84,0,0,0,1.5-.193c.151-.038.3-.153.45-.153.112,0,.15.153.15.308,0,.23-.187.615-.262,1.539-.037.308-.112,1.769-.187,2.155-.037.153-.151.346-.3.346-.187,0-.262-.155-.262-.423a3.641,3.641,0,0,0-.189-1.154c-.226-.54-.562-.771-2.365-1-.564-.077-6.909-.117-7.282-.117-.15,0-.188.117-.188.346v8.886c0,.232,0,.346.188.346.411,0,6.653,0,7.4-.078.788-.075,1.276-.115,1.614-.461.226-.23.376-.421.489-.421s.187.077.187.268-.187.731-.263,1.809c-.075.655-.149,1.886-.149,2.115,0,.268-.076.615-.3.615-.149,0-.226-.115-.226-.307a3.023,3.023,0,0,0-.148-1.079c-.114-.461-.414-.846-1.69-1-.9-.117-6.316-.155-6.879-.155-.187,0-.226.117-.226.233v2.732c0,1.114-.039,4.924,0,5.578.075,2.192,2.562,2.615,5.829,2.615a10.73,10.73,0,0,0,3.3-.347,2.48,2.48,0,0,0,1.5-2.269c.075-.386.15-.5.335-.5s.226.268.226.5a27.822,27.822,0,0,1-.45,3.153c-.226.846-.564.846-1.84.846-2.479,0-6.279-.077-7.629-.115-1.39-.077-2.251-.077-2.742-.077-.075,0-.713,0-1.427.038-.637.038-1.388.077-1.913.077-.338,0-.527-.077-.527-.27a.259.259,0,0,1,.265-.268,9.245,9.245,0,0,0,1.013-.155c.637-.115.713-.766.863-1.729a68.167,68.167,0,0,0,.188-7.079V13.857Z" data-name="Path 8735" fill="#002d5b" id="Path_8735" transform="translate(3.653 0.495)"/>
    <path d="M53.073,24.687c.075,2.693.375,3.5,1.276,3.733A7.7,7.7,0,0,0,56,28.611a.259.259,0,0,1,.262.268c0,.193-.223.27-.6.27-1.877,0-3.192-.117-3.493-.117s-1.69.117-3.191.117c-.338,0-.527-.038-.527-.27a.26.26,0,0,1,.265-.268,5.119,5.119,0,0,0,1.352-.192c.826-.232.938-1.114.938-4.077V5.605c0-1.309.188-1.654.45-1.654.375,0,.938.653,1.277,1,.523.54,5.33,5.77,10.436,11.156,3.265,3.463,6.8,7.347,7.808,8.428l-.338-16.39c-.037-2.115-.226-2.848-1.239-3.04a10.577,10.577,0,0,0-1.614-.153c-.226,0-.263-.193-.263-.306,0-.193.263-.232.639-.232,1.5,0,3.078.077,3.452.077s1.466-.077,2.815-.077c.34,0,.6.038.6.232a.378.378,0,0,1-.377.306,3.656,3.656,0,0,0-.787.077c-1.089.23-1.162.884-1.162,2.848l-.076,19.158c0,2.154-.039,2.347-.263,2.347-.338,0-.676-.27-2.516-2-.338-.307-5.107-5.117-8.6-8.849-3.828-4.116-7.545-8.117-8.557-9.271Z" data-name="Path 8736" fill="#002d5b" id="Path_8736" transform="translate(6.039 0.474)"/>
    <path d="M87.872,3.951c7.433,0,13.065,4.654,13.065,12.271,0,7.309-5.3,13.35-13.251,13.35-9.048,0-12.915-6.964-12.915-12.85A12.8,12.8,0,0,1,87.872,3.951Zm.752,24.275c2.963,0,8.936-1.614,8.936-11.08,0-7.848-4.657-11.966-9.874-11.966-5.52,0-9.5,3.541-9.5,10.658C78.187,23.456,82.653,28.226,88.624,28.226Z" data-name="Path 8737" fill="#002d5b" id="Path_8737" transform="translate(9.319 0.474)"/>
    <path d="M111.652,24.829c1.913-4.386,6.233-15.542,6.945-17.889a5.764,5.764,0,0,0,.3-1.233.682.682,0,0,0-.45-.691A3.747,3.747,0,0,0,117.32,4.9c-.19,0-.374-.115-.374-.27,0-.192.224-.268.749-.268,1.317,0,2.816.077,3.23.077.188,0,1.614-.077,2.589-.077.34,0,.526.077.526.232s-.11.306-.377.306a3,3,0,0,0-1.576.385c-.451.306-.975.77-1.84,3-.376.923-1.989,4.847-3.678,8.848-2.027,4.77-3.492,8.31-4.242,9.926-.9,1.962-1.09,2.462-1.427,2.462-.375,0-.6-.423-1.24-2L101.552,7.48c-.75-1.849-1.2-2.194-2.29-2.463A6.251,6.251,0,0,0,97.987,4.9a.292.292,0,0,1-.265-.306c0-.193.34-.232.866-.232,1.577,0,3.454.077,3.865.077.34,0,1.8-.077,3.081-.077.6,0,.9.077.9.232a.31.31,0,0,1-.336.306,4.013,4.013,0,0,0-1.2.153.54.54,0,0,0-.378.576,13.836,13.836,0,0,0,.9,2.733Z" data-name="Path 8738" fill="#002d5b" id="Path_8738" transform="translate(12.18 0.524)"/>
    <path d="M128.42,5.082c.413-1.076.562-1.269.788-1.269.34,0,.452.463.787,1.194.6,1.384,5.894,14.887,7.922,19.851,1.2,2.923,2.1,3.346,2.816,3.578a4.5,4.5,0,0,0,1.315.192c.188,0,.412.077.412.268s-.376.27-.751.27c-.487,0-2.927,0-5.217-.077-.639-.038-1.164-.038-1.164-.233,0-.152.075-.152.226-.228a.62.62,0,0,0,.3-.884l-2.966-7.5c-.073-.153-.112-.193-.3-.193h-7.622a.351.351,0,0,0-.339.27l-1.877,5.233a6.863,6.863,0,0,0-.49,2.194c0,.653.566.884,1.126.884h.3c.263,0,.337.115.337.268,0,.193-.187.27-.487.27-.788,0-2.59-.117-2.965-.117-.34,0-1.992.117-3.344.117-.412,0-.639-.077-.639-.27a.293.293,0,0,1,.3-.268,9.012,9.012,0,0,0,.975-.077c1.5-.193,2.142-1.346,2.779-3ZM132.1,18.7c.151,0,.151-.077.111-.232l-3.264-8.964c-.188-.5-.374-.5-.566,0L125.3,18.471c-.038.155,0,.232.111.232Z" data-name="Path 8739" fill="#002d5b" id="Path_8739" transform="translate(14.532 0.458)"/>
    <path d="M3.276,34.613c0-2.127,0-2.51-.024-2.946-.028-.465-.133-.681-.572-.776a2.35,2.35,0,0,0-.452-.043c-.055,0-.107-.027-.107-.082,0-.08.065-.11.211-.11.6,0,1.438.042,1.5.042.161,0,1-.042,1.8-.042,1.317,0,3.751-.122,5.336,1.556a4.939,4.939,0,0,1,1.29,3.463,5.645,5.645,0,0,1-1.437,3.846,5.222,5.222,0,0,1-4.034,1.569c-.572,0-1.278-.04-1.85-.083s-1.039-.082-1.105-.082c-.026,0-.254,0-.533.015-.267,0-.572.027-.772.027-.145,0-.211-.027-.211-.108,0-.042.026-.082.106-.082a2.178,2.178,0,0,0,.4-.053c.268-.055.333-.356.387-.753.067-.571.067-1.649.067-2.958v-2.4Zm1.118,1.471c0,1.447.013,2.7.026,2.958a2.972,2.972,0,0,0,.148,1.038c.174.26.692.545,2.261.545A4.405,4.405,0,0,0,10,39.356,4.864,4.864,0,0,0,11.06,36.1a4.942,4.942,0,0,0-1.276-3.436,5.4,5.4,0,0,0-4.353-1.541,3.46,3.46,0,0,0-.865.095.248.248,0,0,0-.161.273c-.013.463-.013,1.855-.013,2.9v1.692Z" data-name="Path 8740" fill="#002d5b" id="Path_8740" transform="translate(0.264 3.678)"/>
    <path d="M19.786,37.012c0,1.309,0,2.387.067,2.958.041.4.122.7.519.753.188.025.479.053.6.053.081,0,.106.04.106.082,0,.067-.067.108-.213.108-.733,0-1.569-.042-1.638-.042s-.9.042-1.3.042c-.148,0-.213-.027-.213-.108,0-.042.024-.082.106-.082a2.159,2.159,0,0,0,.4-.053c.267-.055.332-.356.385-.753.067-.571.067-1.649.067-2.958v-2.4c0-2.127,0-2.51-.028-2.946-.028-.465-.159-.695-.452-.763a1.7,1.7,0,0,0-.415-.055c-.05,0-.106-.027-.106-.082,0-.08.067-.11.215-.11.439,0,1.277.042,1.342.042s.905-.042,1.305-.042c.148,0,.213.028.213.11,0,.055-.054.082-.107.082a1.717,1.717,0,0,0-.332.043c-.361.067-.467.3-.492.776-.028.436-.028.819-.028,2.946v2.4Z" data-name="Path 8741" fill="#002d5b" id="Path_8741" transform="translate(2.202 3.679)"/>
    <path d="M30.653,31.019c.161-.45.215-.535.294-.535s.133.07.293.491c.2.518,2.289,6.151,3.1,8.225.48,1.214.865,1.432,1.144,1.512a1.634,1.634,0,0,0,.531.083c.081,0,.135.013.135.082s-.119.108-.267.108c-.2,0-1.17,0-2.089-.027-.254-.015-.4-.015-.4-.1,0-.053.041-.08.093-.095.081-.027.159-.15.081-.368l-1.237-3.355a.116.116,0,0,0-.12-.082H29.353c-.067,0-.106.04-.133.108l-.8,2.413a2.971,2.971,0,0,0-.185.914c0,.273.28.4.506.4h.135c.093,0,.132.025.132.082,0,.082-.081.108-.2.108-.318,0-.892-.042-1.039-.042s-.878.042-1.5.042c-.174,0-.254-.027-.254-.108,0-.057.054-.082.12-.082a3.579,3.579,0,0,0,.385-.028c.613-.082.878-.6,1.118-1.283Zm1.385,5.455c.068,0,.068-.042.054-.1l-1.263-3.683c-.07-.2-.135-.2-.2,0l-1.17,3.683c-.029.068,0,.1.039.1Z" data-name="Path 8742" fill="#002d5b" id="Path_8742" transform="translate(3.242 3.658)"/>
    <path d="M47.883,37.509c0-1.1-.068-1.256-.6-1.406a2.5,2.5,0,0,0-.453-.04c-.052,0-.106-.027-.106-.082,0-.082.067-.11.214-.11.6,0,1.437.042,1.5.042s.905-.042,1.305-.042c.146,0,.213.028.213.11,0,.055-.052.082-.107.082a1.948,1.948,0,0,0-.332.04c-.359.068-.466.3-.492.778C49,37.32,49,37.729,49,38.3v1.527c0,.615-.015.64-.172.736a6.431,6.431,0,0,1-2.822.616,6.5,6.5,0,0,1-4.379-1.461,5.379,5.379,0,0,1-1.583-3.886,5.212,5.212,0,0,1,2.224-4.489,6.414,6.414,0,0,1,3.54-.859,11.2,11.2,0,0,1,2.036.233,6.423,6.423,0,0,0,1.078.137c.132.015.159.07.159.123a17.484,17.484,0,0,0-.094,1.937c0,.218-.028.288-.119.288-.068,0-.081-.082-.093-.2a2.19,2.19,0,0,0-.279-.9c-.333-.518-1.411-1.1-3.127-1.1a4.184,4.184,0,0,0-2.848.9,4.434,4.434,0,0,0-1.32,3.464,5.647,5.647,0,0,0,1.411,3.779A4.785,4.785,0,0,0,46.1,40.594a3.546,3.546,0,0,0,1.516-.286.5.5,0,0,0,.267-.476Z" data-name="Path 8743" fill="#002d5b" id="Path_8743" transform="translate(4.991 3.658)"/>
    <path d="M56.794,39.134c.024,1.119.159,1.472.519,1.581a2.761,2.761,0,0,0,.665.083c.067,0,.107.025.107.082,0,.082-.081.108-.241.108-.757,0-1.289-.042-1.409-.042s-.68.042-1.278.042c-.133,0-.213-.013-.213-.108,0-.057.037-.082.106-.082a1.824,1.824,0,0,0,.546-.083c.333-.095.4-.49.4-1.731l.015-7.815c0-.533.041-.685.146-.685s.333.3.465.438c.2.232,2.183,2.427,4.232,4.679,1.318,1.446,2.768,3.11,3.194,3.559L63.9,32.231c-.013-.888-.106-1.186-.519-1.3a3.442,3.442,0,0,0-.652-.068c-.093,0-.106-.04-.106-.095,0-.082.106-.1.263-.1.6,0,1.24.042,1.386.042s.585-.042,1.131-.042c.146,0,.239.015.239.1,0,.055-.054.095-.146.095a1.073,1.073,0,0,0-.319.043c-.439.093-.494.393-.494,1.213l-.026,7.992c0,.9-.028.968-.12.968s-.265-.15-.97-.873c-.146-.137-2.064-2.14-3.473-3.694-1.544-1.706-3.048-3.423-3.475-3.914Z" data-name="Path 8744" fill="#002d5b" id="Path_8744" transform="translate(6.848 3.658)"/>
    <path d="M75.191,30.484a4.907,4.907,0,0,1,5.23,5.117,5.3,5.3,0,0,1-5.31,5.578c-3.647,0-5.164-2.9-5.164-5.362A5.223,5.223,0,0,1,75.191,30.484Zm.28,10.175c1.2,0,3.672-.71,3.672-4.677,0-3.273-1.942-5.032-4.044-5.032-2.223,0-3.886,1.5-3.886,4.485C71.212,38.616,73.075,40.659,75.47,40.659Z" data-name="Path 8745" fill="#002d5b" id="Path_8745" transform="translate(8.718 3.658)"/>
    <path d="M85.5,40.811c-.185-.1-.2-.152-.2-.52,0-.681.052-1.228.063-1.446.016-.148.042-.218.109-.218s.093.04.093.148a2.523,2.523,0,0,0,.039.506,1.816,1.816,0,0,0,1.971,1.389,1.8,1.8,0,0,0,1.9-1.814c0-.941-.385-1.487-1.528-2.455l-.6-.5c-1.409-1.188-1.729-2.034-1.729-2.96a2.462,2.462,0,0,1,2.757-2.457,4.955,4.955,0,0,1,1.237.138,2.1,2.1,0,0,0,.465.068c.107,0,.133.027.133.095s-.054.518-.054,1.447c0,.218-.024.313-.089.313-.083,0-.1-.068-.107-.178a2.439,2.439,0,0,0-.174-.681c-.08-.15-.44-.723-1.664-.723a1.531,1.531,0,0,0-1.637,1.584c0,.776.346,1.268,1.622,2.29l.374.3c1.568,1.268,1.942,2.114,1.942,3.2A2.857,2.857,0,0,1,89.294,40.6a3.432,3.432,0,0,1-2.009.573A3.932,3.932,0,0,1,85.5,40.811Z" data-name="Path 8746" fill="#002d5b" id="Path_8746" transform="translate(10.632 3.658)"/>
    <path d="M100.717,37.033c0,1.309,0,2.387.065,2.958.043.4.12.7.521.753.186.025.479.053.6.053.081,0,.107.04.107.082,0,.067-.066.108-.213.108-.736,0-1.572-.042-1.639-.042s-.905.042-1.305.042c-.146,0-.215-.027-.215-.108,0-.042.028-.082.106-.082a2.212,2.212,0,0,0,.4-.053c.265-.055.332-.356.385-.753.065-.571.065-1.649.065-2.958V31.265l-1.968.025c-.827.015-1.144.112-1.359.436a2.813,2.813,0,0,0-.226.425c-.039.108-.078.135-.132.135s-.067-.038-.067-.122c0-.137.267-1.311.293-1.419.026-.08.08-.262.133-.262a2.5,2.5,0,0,0,.587.167c.387.04.891.067,1.053.067H102.9a5.318,5.318,0,0,0,.946-.067c.2-.028.319-.07.372-.07s.066.083.066.163c0,.408-.04,1.349-.04,1.5,0,.122-.04.178-.093.178s-.092-.042-.106-.233l-.015-.152c-.04-.408-.359-.723-1.637-.75l-1.678-.025v5.77Z" data-name="Path 8747" fill="#002d5b" id="Path_8747" transform="translate(11.946 3.658)"/>
    <path d="M111.739,37.012c0,1.309,0,2.387.065,2.958.04.4.12.7.518.753.187.025.479.053.6.053.08,0,.108.04.108.082,0,.067-.067.108-.215.108-.73,0-1.57-.042-1.635-.042s-.905.042-1.306.042c-.146,0-.213-.027-.213-.108,0-.042.026-.082.109-.082a2.178,2.178,0,0,0,.4-.053c.267-.055.335-.356.387-.753.069-.571.069-1.649.069-2.958v-2.4c0-2.127,0-2.51-.028-2.946-.028-.465-.161-.695-.452-.763a1.7,1.7,0,0,0-.414-.055c-.054,0-.106-.027-.106-.082,0-.08.063-.11.211-.11.44,0,1.278.042,1.344.042s.905-.042,1.3-.042c.147,0,.213.028.213.11,0,.055-.052.082-.106.082a1.762,1.762,0,0,0-.333.043c-.359.067-.467.3-.493.776-.026.436-.026.819-.026,2.946Z" data-name="Path 8748" fill="#002d5b" id="Path_8748" transform="translate(13.663 3.679)"/>
    <path d="M120.473,39.7a5.292,5.292,0,0,1-1.612-4.037,5.512,5.512,0,0,1,1.491-3.723,5.309,5.309,0,0,1,4.06-1.461,11.08,11.08,0,0,1,1.929.167,10.983,10.983,0,0,0,1.36.2c.146.015.172.07.172.152,0,.108-.039.273-.065.765-.028.448-.028,1.2-.041,1.4s-.043.286-.12.286-.109-.1-.109-.286a1.906,1.906,0,0,0-.558-1.391A4.347,4.347,0,0,0,124.319,31a4,4,0,0,0-3.06.994,4.637,4.637,0,0,0-1.2,3.561,4.872,4.872,0,0,0,4.807,4.992,3.021,3.021,0,0,0,2.316-.681,2.642,2.642,0,0,0,.491-1.146c.028-.15.052-.2.135-.2.065,0,.092.1.092.2a14.507,14.507,0,0,1-.294,1.744c-.079.26-.106.286-.346.395a7.525,7.525,0,0,1-2.394.315A6.035,6.035,0,0,1,120.473,39.7Z" data-name="Path 8749" fill="#002d5b" id="Path_8749" transform="translate(14.814 3.658)"/>
    <path d="M133.116,40.811c-.186-.1-.2-.152-.2-.52,0-.681.054-1.228.069-1.446.011-.148.038-.218.106-.218s.091.04.091.148a2.435,2.435,0,0,0,.04.506,1.815,1.815,0,0,0,1.971,1.389,1.8,1.8,0,0,0,1.9-1.814c0-.941-.386-1.487-1.532-2.455l-.6-.5c-1.41-1.188-1.731-2.034-1.731-2.96a2.462,2.462,0,0,1,2.756-2.457,4.957,4.957,0,0,1,1.237.138,2.125,2.125,0,0,0,.466.068c.107,0,.134.027.134.095s-.055.518-.055,1.447c0,.218-.026.313-.091.313s-.092-.068-.107-.178a2.373,2.373,0,0,0-.172-.681c-.079-.15-.439-.723-1.664-.723a1.53,1.53,0,0,0-1.636,1.584c0,.776.345,1.268,1.623,2.29l.374.3c1.57,1.268,1.942,2.114,1.942,3.2A2.846,2.846,0,0,1,136.91,40.6a3.436,3.436,0,0,1-2.011.573A3.932,3.932,0,0,1,133.116,40.811Z" data-name="Path 8750" fill="#002d5b" id="Path_8750" transform="translate(16.566 3.658)"/>
    <path d="M2.385,46.221H152.008" data-name="Path 8751" fill="none" id="Path_8751" stroke="#002d5b" stroke-linecap="round" stroke-miterlimit="10" stroke-width="0.5" transform="translate(0.297 5.547)"/>
    <path d="M100.789,46.675a4.13,4.13,0,1,1-4.128-4.232A4.184,4.184,0,0,1,100.789,46.675Z" data-name="Path 8752" fill="#f68d39" id="Path_8752" transform="translate(11.533 5.093)"/>
    <path d="M140.014,46.675a4.13,4.13,0,1,1-4.13-4.232A4.184,4.184,0,0,1,140.014,46.675Z" data-name="Path 8753" fill="#005a96" id="Path_8753" transform="translate(16.422 5.093)"/>
    <path d="M120.4,46.675a4.13,4.13,0,1,1-4.126-4.232A4.182,4.182,0,0,1,120.4,46.675Z" data-name="Path 8754" fill="#542e8e" id="Path_8754" transform="translate(13.977 5.093)"/>
    <path d="M110.6,46.675a4.13,4.13,0,1,1-4.13-4.232A4.184,4.184,0,0,1,110.6,46.675Z" data-name="Path 8755" fill="#f04b54" id="Path_8755" transform="translate(12.755 5.093)"/>
    <path d="M130.206,46.675a4.13,4.13,0,1,1-4.13-4.232A4.183,4.183,0,0,1,130.206,46.675Z" data-name="Path 8756" fill="#006b35" id="Path_8756" transform="translate(15.199 5.093)"/>
    <path d="M139.342,31.561a1.146,1.146,0,1,1,1.148,1.178A1.163,1.163,0,0,1,139.342,31.561Zm2.109,0a.964.964,0,1,0-.96.991A.939.939,0,0,0,141.451,31.561Zm-1.224.666h-.168V30.883h.565c.341,0,.457.131.457.373,0,.26-.175.356-.4.375l.39.6h-.19l-.368-.6h-.281Zm.233-.753c.183,0,.439.03.439-.222,0-.188-.153-.213-.312-.213h-.36v.435Z" data-name="Path 8757" fill="#002d5b" id="Path_8757" transform="translate(17.367 3.647)"/>
  </g>
</svg>
